<!DOCTYPE svg PUBLIC "-//W3C//DTD SVG 1.1//EN" "http://www.w3.org/Graphics/SVG/1.1/DTD/svg11.dtd">

<!-- Uploaded to: SVG Repo, www.svgrepo.com, Transformed by: SVG Repo Mixer Tools -->
<svg fill="#0414fe" height="800px" width="800px" version="1.1" id="Layer_1"
 xmlns="http://www.w3.org/2000/svg" xmlns:xlink="http://www.w3.org/1999/xlink"
 viewBox="0 0 534.678 534.678" xml:space="preserve">

<g id="SVGRepo_bgCarrier" stroke-width="0"/>

<g id="SVGRepo_tracerCarrier" stroke-linecap="round" stroke-linejoin="round"/>

<g id="SVGRepo_iconCarrier"> <g> <g> <path d="M139.339,11.339c-70.982,0-128,57.018-128,128s57.018,128,128,128s128-57.018,128-128S210.321,11.339,139.339,11.339z M139.339,244.066c-58.182,0-104.727-46.545-104.727-104.727S81.157,34.612,139.339,34.612s104.727,46.545,104.727,104.727 S197.521,244.066,139.339,244.066z"/> </g> </g> <g> <g> <path d="M150.975,127.702h-23.273c-6.982,0-11.636-4.655-11.636-11.636s4.655-11.636,11.636-11.636h34.909 c6.982,0,11.636-4.655,11.636-11.636s-4.655-11.636-11.636-11.636h-11.636V69.521c0-6.982-4.655-11.636-11.636-11.636 s-11.636,4.655-11.636,11.636v11.636c-19.782,0-34.909,15.127-34.909,34.909c0,19.782,15.127,34.909,34.909,34.909h23.273 c6.982,0,11.636,4.655,11.636,11.636c0,6.982-4.655,11.636-11.636,11.636h-34.909c-6.982,0-11.636,4.655-11.636,11.636 s4.655,11.636,11.636,11.636h11.636v11.636c0,6.982,4.655,11.636,11.636,11.636s11.636-4.655,11.636-11.636v-11.636 c19.782,0,34.909-15.127,34.909-34.909C185.884,142.83,170.757,127.702,150.975,127.702z"/> </g> </g> <g> <g> <path d="M395.339,267.339c-70.982,0-128,57.018-128,128s57.018,128,128,128s128-57.018,128-128S466.321,267.339,395.339,267.339z M395.339,500.066c-58.182,0-104.727-46.545-104.727-104.727s46.545-104.727,104.727-104.727s104.727,46.545,104.727,104.727 S453.521,500.066,395.339,500.066z"/> </g> </g> <g> <g> <path d="M424.43,426.757c-17.455,17.455-45.382,17.455-62.836,0c-2.327-2.327-4.655-5.818-6.982-8.145h29.091 c3.491,0,5.818-2.327,5.818-5.818s-2.327-5.818-5.818-5.818h-32.582c-2.327-8.145-2.327-15.127,0-23.273h44.218 c3.491,0,5.818-2.327,5.818-5.818s-2.327-5.818-5.818-5.818h-39.564c2.327-3.491,3.491-5.818,6.982-8.145 c17.455-17.455,45.382-17.455,64,0c4.655,4.655,11.636,4.655,16.291,0c4.655-4.655,4.655-11.636,0-16.291 c-12.8-12.8-30.255-19.782-47.709-19.782s-34.909,6.982-47.709,19.782c-6.982,6.982-12.8,16.291-15.127,24.436h-6.982 c-3.491,0-5.818,2.327-5.818,5.818s2.327,5.818,5.818,5.818h2.327c-1.164,8.145-1.164,15.127,0,23.273h-2.327 c-3.491,0-5.818,2.327-5.818,5.818c0,3.491,2.327,5.818,5.818,5.818h4.655c3.491,9.309,8.145,17.455,15.127,24.436 c12.8,12.8,30.255,19.782,47.709,19.782s34.909-6.982,47.709-19.782c4.655-4.655,4.655-11.636,0-16.291 C436.066,422.102,429.084,422.102,424.43,426.757z"/> </g> </g> <g> <g> <path d="M530.321,199.848c-4.655-3.491-12.8-2.327-16.291,2.327l-16.291,22.109C482.612,117.23,389.521,34.612,278.975,34.612 c-6.982,0-11.636,4.655-11.636,11.636c0,6.982,4.655,11.636,11.636,11.636c109.382,0,197.818,88.436,197.818,197.818 c0,4.655,3.491,9.309,8.145,10.473c1.164,0,2.327,1.164,3.491,1.164c3.491,0,6.982-1.164,9.309-4.655l34.909-46.545 C536.139,211.484,534.975,203.339,530.321,199.848z"/> </g> </g> <g> <g> <path d="M255.702,476.793c-109.382,0-197.818-88.436-197.818-197.818c0-4.655-3.491-9.309-8.145-10.473s-10.473,0-12.8,3.491 L2.03,318.539c-3.491,4.655-2.327,12.8,2.327,16.291s12.8,2.327,16.291-2.327l16.291-22.109 c15.127,107.055,108.218,189.673,218.764,189.673c6.982,0,11.636-4.655,11.636-11.636S262.684,476.793,255.702,476.793z"/> </g> </g> </g>

</svg>